<svg width="16" height="16" viewBox="0 0 16 16" fill="none" xmlns="http://www.w3.org/2000/svg">
<g clip-path="url(#clip0_1_2708)">
<path d="M0 0.155976L13.7024 14.6701C13.7024 14.6701 14.1692 14.9994 14.5262 14.6152C14.8831 14.2311 14.6085 13.847 14.6085 13.847L0 0.155945V0.155976Z" fill="#AC7B69"/>
<path d="M4.33865 1.52783L14.7733 12.777C14.7733 12.777 15.2401 13.1062 15.5971 12.7221C15.9541 12.338 15.6795 11.9538 15.6795 11.9538L4.33862 1.5278L4.33865 1.52783Z" fill="#AC7B69"/>
<path d="M1.29065 4.46356L11.7253 15.7127C11.7253 15.7127 12.1921 16.0419 12.5491 15.6578C12.9061 15.2737 12.6315 14.8896 12.6315 14.8896L1.29065 4.46353V4.46356Z" fill="#AC7B69"/>
<path d="M8.00635 2.70764L15.2964 10.5667C15.2964 10.5667 15.6226 10.7968 15.8719 10.5284C16.1213 10.26 15.9295 9.99167 15.9295 9.99167L8.00629 2.70764H8.00635Z" fill="#AC7B69"/>
<path d="M2.29477 7.86572L9.58486 15.7248C9.58486 15.7248 9.91102 15.9548 10.1604 15.6865C10.4098 15.4181 10.2179 15.1498 10.2179 15.1498L2.29477 7.86572Z" fill="#AC7B69"/>
<path d="M11.7527 4.40869L15.0568 7.98153C15.0568 7.98153 15.2182 8.08932 15.3416 7.96357C15.4649 7.83782 15.37 7.71207 15.37 7.71207L11.7527 4.40869Z" fill="#AC7B69"/>
<path d="M4.11896 11.4874L7.42308 15.0603C7.42308 15.0603 7.5844 15.1681 7.7078 15.0423C7.83121 14.9166 7.73627 14.7908 7.73627 14.7908L4.11899 11.4874H4.11896Z" fill="#AC7B69"/>
</g>
<defs>
<clipPath id="clip0_1_2708">
<rect width="16" height="16" fill="white"/>
</clipPath>
</defs>
</svg>
