<svg width="16" height="16" viewBox="0 0 16 16" fill="none" xmlns="http://www.w3.org/2000/svg">
<g clip-path="url(#clip0_1_2976)">
<path d="M8.00506 16.01C7.79233 16.0096 7.58354 15.9526 7.40006 15.845L5.46806 14.685C5.18006 14.522 5.32106 14.463 5.41606 14.43C5.72285 14.3342 6.01621 14.1998 6.28906 14.03C6.31213 14.0192 6.3376 14.0145 6.363 14.0165C6.38841 14.0184 6.41288 14.0268 6.43406 14.041L7.91706 14.935C7.94467 14.95 7.97561 14.9579 8.00706 14.9579C8.03851 14.9579 8.06945 14.95 8.09706 14.935L13.8811 11.547C13.9081 11.5302 13.9304 11.5068 13.9458 11.479C13.9612 11.4511 13.9692 11.4198 13.9691 11.388V4.60799C13.9691 4.57566 13.961 4.54384 13.9455 4.51551C13.9299 4.48717 13.9074 4.46325 13.8801 4.44599L8.10006 1.06099C8.07297 1.04546 8.04229 1.0373 8.01106 1.0373C7.97983 1.0373 7.94915 1.04546 7.92206 1.06099L2.13806 4.44799C2.1103 4.46471 2.08734 4.48832 2.07139 4.51653C2.05545 4.54473 2.04707 4.57659 2.04706 4.60899V11.386C2.04696 11.4179 2.05534 11.4492 2.07133 11.4768C2.08732 11.5044 2.11035 11.5272 2.13806 11.543L3.72306 12.472C4.58306 12.908 5.10906 12.394 5.10906 11.878V5.18699C5.10893 5.16484 5.11318 5.14289 5.12156 5.12239C5.12994 5.10189 5.1423 5.08325 5.15791 5.06755C5.17353 5.05184 5.19209 5.03938 5.21254 5.03087C5.23299 5.02237 5.25491 5.01799 5.27706 5.01799H6.01006C6.03212 5.01812 6.05394 5.02259 6.07428 5.03116C6.09461 5.03972 6.11305 5.05221 6.12856 5.0679C6.14407 5.08359 6.15633 5.10219 6.16466 5.12262C6.17298 5.14305 6.17719 5.16493 6.17706 5.18699V11.877C6.2097 12.115 6.18892 12.3572 6.11622 12.5861C6.04353 12.8151 5.92074 13.0249 5.75679 13.2005C5.59284 13.376 5.39184 13.5128 5.16841 13.6009C4.94497 13.6891 4.7047 13.7263 4.46506 13.71C3.99457 13.7182 3.53172 13.5904 3.13206 13.342L1.61506 12.456C1.42967 12.3455 1.27622 12.1886 1.16979 12.0008C1.06337 11.8131 1.00763 11.6008 1.00806 11.385V4.60799C1.00751 4.39226 1.0632 4.18012 1.16965 3.99248C1.27609 3.80485 1.42961 3.6482 1.61506 3.53799L7.40006 0.145989C7.58599 0.0424843 7.79526 -0.0118408 8.00806 -0.0118408C8.22086 -0.0118408 8.43013 0.0424843 8.61606 0.145989L14.4001 3.53799C14.5856 3.64822 14.7392 3.80485 14.8458 3.99246C14.9524 4.18007 15.0083 4.39221 15.0081 4.60799V11.384C15.0081 11.5999 14.9521 11.812 14.8455 11.9998C14.7389 12.1875 14.5854 12.3444 14.4001 12.455L8.61606 15.845C8.43141 15.9533 8.22114 16.0103 8.00706 16.01H8.00506ZM9.79206 11.341C7.26006 11.341 6.73006 10.161 6.73006 9.17199C6.72938 9.14939 6.7333 9.12688 6.74157 9.10584C6.74985 9.08479 6.76231 9.06565 6.77821 9.04957C6.79411 9.03348 6.8131 9.0208 6.83405 9.01227C6.85499 9.00375 6.87745 8.99957 6.90006 8.99999H7.64506C7.68541 9.00006 7.72439 9.01464 7.75487 9.04108C7.78535 9.06752 7.8053 9.10405 7.81106 9.14399C7.92406 9.91699 8.26006 10.307 9.79106 10.307C11.0091 10.307 11.5281 10.027 11.5281 9.37099C11.5281 8.99199 11.3821 8.71199 9.48706 8.52299C7.90506 8.36399 6.92506 8.00899 6.92506 6.72299C6.92506 5.53799 7.90906 4.83199 9.55806 4.83199C11.4111 4.83199 12.3281 5.48499 12.4441 6.88599C12.446 6.90951 12.4431 6.93318 12.4355 6.95554C12.4279 6.9779 12.4159 6.99847 12.4001 7.01599C12.3845 7.0332 12.3655 7.04697 12.3444 7.05644C12.3232 7.06591 12.3003 7.07087 12.2771 7.07099H11.5271C11.4889 7.07065 11.4521 7.05726 11.4226 7.03307C11.3931 7.00887 11.3728 6.97532 11.3651 6.93799C11.1851 6.12499 10.7461 5.86499 9.55906 5.86499C8.22806 5.86499 8.07406 6.33499 8.07406 6.68799C8.07406 7.11599 8.25706 7.23999 10.0531 7.48099C11.8311 7.71899 12.6761 8.05699 12.6761 9.32499C12.6761 10.593 11.6261 11.337 9.79306 11.337L9.79206 11.341Z" fill="#73B923"/>
</g>
<defs>
<clipPath id="clip0_1_2976">
<rect width="16" height="16" fill="white"/>
</clipPath>
</defs>
</svg>
