<svg width="16" height="16" viewBox="0 0 16 16" fill="none" xmlns="http://www.w3.org/2000/svg">
<path d="M9.38344 1.29748C8.68813 1.31091 7.99629 1.50401 7.38498 1.89343L4.26194 3.88362C3.84044 4.14836 3.47877 4.49809 3.20002 4.91046C2.92127 5.32283 2.73156 5.7888 2.64301 6.2786C2.49364 7.10531 2.62425 7.95821 3.01416 8.70234C2.74694 9.10775 2.56486 9.56321 2.47896 10.0411C2.38975 10.5417 2.40154 11.0552 2.5136 11.5512C2.62567 12.0472 2.83577 12.5158 3.13154 12.9294C4.37693 14.7113 6.8365 15.2394 8.61474 14.1065L11.7379 12.1247C12.1589 11.8594 12.5202 11.5095 12.7989 11.0973C13.0776 10.685 13.2676 10.2193 13.3568 9.72975C13.5056 8.9033 13.3746 8.05084 12.9844 7.30724C13.2515 6.90164 13.434 6.44629 13.5209 5.96847C13.6098 5.46783 13.5979 4.95448 13.4859 4.45851C13.3738 3.96253 13.1639 3.49392 12.8683 3.08015V3.07057C12.051 1.90123 10.7108 1.27183 9.38344 1.29748ZM9.65739 2.82708C10.0385 2.84458 10.4105 2.94978 10.7443 3.1345C11.0782 3.31922 11.3649 3.57848 11.5822 3.8921C11.7602 4.14069 11.8866 4.42238 11.9541 4.72059C12.0215 5.01879 12.0286 5.32748 11.975 5.62847C11.9563 5.7269 11.9315 5.82406 11.9007 5.91941L11.8408 6.09909L11.6816 5.9793C11.312 5.70798 10.8989 5.50146 10.4601 5.36858L10.3404 5.33389L10.3512 5.2141C10.365 5.04912 10.3201 4.88457 10.2243 4.74952C10.1364 4.62612 10.013 4.53241 9.87056 4.48085C9.7281 4.42929 9.57332 4.42232 9.42681 4.46088C9.359 4.47885 9.29435 4.50713 9.23514 4.54473L6.11098 6.5314C6.03466 6.57962 5.96918 6.64315 5.91867 6.71797C5.86816 6.79279 5.83372 6.87728 5.81754 6.96609C5.80189 7.05709 5.80442 7.15029 5.82498 7.24031C5.84554 7.33033 5.88372 7.41538 5.93733 7.49057C6.02428 7.61497 6.14701 7.71 6.28922 7.76304C6.43143 7.81608 6.58641 7.82463 6.73359 7.78755C6.80123 7.7691 6.8658 7.74085 6.92526 7.70369L8.12275 6.94454C8.31842 6.81899 8.53253 6.72484 8.75731 6.66548C9.24869 6.5375 9.76751 6.56351 10.2436 6.74C10.7197 6.91648 11.1302 7.23492 11.4194 7.65226C11.5972 7.90092 11.7236 8.18262 11.791 8.4808C11.8585 8.77899 11.8656 9.08764 11.8121 9.38863C11.7592 9.68383 11.6453 9.96475 11.4777 10.2134C11.3101 10.4621 11.0924 10.673 10.8386 10.8328L7.71429 12.823C7.5181 12.9475 7.30414 13.0416 7.07973 13.1019C6.58806 13.2295 6.06908 13.2032 5.59284 13.0266C5.11659 12.8499 4.706 12.5314 4.41647 12.114C4.23871 11.8654 4.1125 11.5836 4.04525 11.2854C3.978 10.9872 3.97109 10.6786 4.02491 10.3777C4.04255 10.2798 4.06734 10.1834 4.09908 10.0891L4.15783 9.90944L4.31824 10.0292C4.6871 10.2985 5.0989 10.5034 5.53617 10.6352L5.65586 10.6698L5.64513 10.7896C5.6336 10.9538 5.67976 11.1169 5.77565 11.2507C5.86301 11.3762 5.98674 11.472 6.13018 11.5251C6.27362 11.5782 6.42989 11.5861 6.57794 11.5477C6.64563 11.5294 6.71021 11.5012 6.76951 11.4638L9.88774 9.47361C9.96435 9.42542 10.03 9.36174 10.0806 9.28667C10.1311 9.2116 10.1654 9.12678 10.1812 9.03768C10.1971 8.94688 10.1947 8.85381 10.1742 8.76395C10.1536 8.67409 10.1153 8.58926 10.0614 8.51444C9.97403 8.38889 9.8503 8.29312 9.70686 8.24002C9.56342 8.18692 9.40715 8.17905 9.2591 8.21746C9.19134 8.23541 9.12673 8.26366 9.06754 8.30121L7.87004 9.06164C7.6742 9.18582 7.46061 9.27949 7.2366 9.33945C6.74575 9.46628 6.22783 9.43971 5.75254 9.26331C5.27725 9.08691 4.8674 8.76915 4.57815 8.35278C4.40092 8.10386 4.27521 7.82204 4.20838 7.52386C4.14155 7.22569 4.13496 6.91717 4.18898 6.61641C4.24186 6.32121 4.35576 6.04029 4.5234 5.79162C4.69103 5.54295 4.90872 5.332 5.16253 5.17225L8.29032 3.18206C8.48503 3.05813 8.69742 2.96446 8.92024 2.90425C9.16071 2.84177 9.40921 2.81579 9.65741 2.82717L9.65739 2.82708Z" fill="#FF5722"/>
</svg>
