<svg id="Layer_1" data-name="Layer 1" xmlns="http://www.w3.org/2000/svg" viewBox="0 0 1024 1024"><defs><style>.cls-1{fill:#fff;}</style></defs><title>Icon_White</title><path class="cls-1" d="M396.43,229H856.25c3.86,0,7,2.35,7,5.24V349.52c0,2.88-3.16,5.24-7,5.24H413.64c-46.58,0-84.3,28.15-84.3,62.9V539.2a5.06,5.06,0,0,1-2.88,4.25H163.68a5.06,5.06,0,0,1-3-4.25V402.66l64.21-47.9,104.4-77.89,61.82-46.12.63-.47A8.39,8.39,0,0,1,396.43,229Z"/><path class="cls-1" d="M627.57,795H167.75c-3.86,0-7-2.35-7-5.24V674.48c0-2.88,3.16-5.24,7-5.24H610.36c46.58,0,84.3-28.15,84.3-62.9V484.8a5.06,5.06,0,0,1,2.88-4.25H860.32a5.06,5.06,0,0,1,2.95,4.25V621.34l-64.21,47.9-104.4,77.89-61.82,46.12-.63.47A8.39,8.39,0,0,1,627.57,795Z"/></svg>