<svg id="Layer_1" data-name="Layer 1" xmlns="http://www.w3.org/2000/svg" viewBox="0 0 1024 1024"><defs><style>.cls-1{fill:#106;}</style></defs><title>SAVR_Black</title><path class="cls-1" d="M129.38,423.5H273.15c1.2,0,2.19.74,2.19,1.64V461.2c0,.9-1,1.64-2.19,1.64H134.76c-14.57,0-26.36,8.8-26.36,19.66v38a1.56,1.56,0,0,1-.9,1.32H56.6a1.56,1.56,0,0,1-.92-1.32v-42.7l20.08-15,32.64-24.36,19.33-14.42.2-.15A2.63,2.63,0,0,1,129.38,423.5Z"/><path class="cls-1" d="M201.65,600.5H57.87c-1.2,0-2.19-.74-2.19-1.64V562.8c0-.9,1-1.64,2.19-1.64H196.26c14.57,0,26.36-8.8,26.36-19.66v-38a1.58,1.58,0,0,1,.9-1.32h50.9a1.56,1.56,0,0,1,.92,1.32v42.7l-20.07,15-32.65,24.36-19.33,14.42-.19.15A2.68,2.68,0,0,1,201.65,600.5Z"/><path class="cls-1" d="M454.52,562.82H354a4.39,4.39,0,0,0-3.92,2.41l-16.53,32.86a4.39,4.39,0,0,1-3.91,2.41H289.44a4.38,4.38,0,0,1-3.89-6.39l86.76-168.23a4.37,4.37,0,0,1,3.89-2.38h56.11a4.38,4.38,0,0,1,3.88,2.37l87,168.24a4.38,4.38,0,0,1-3.89,6.39H478.88a4.4,4.4,0,0,1-3.91-2.41l-16.54-32.86A4.36,4.36,0,0,0,454.52,562.82ZM437.11,522.6l-28.83-57.66a4.38,4.38,0,0,0-7.83,0l-29,57.66a4.38,4.38,0,0,0,3.91,6.35h57.86A4.38,4.38,0,0,0,437.11,522.6Z"/><path class="cls-1" d="M743.74,429.89,657.22,598.12a4.4,4.4,0,0,1-3.9,2.38H596.47a4.39,4.39,0,0,1-3.9-2.38L506.05,429.89a4.39,4.39,0,0,1,3.9-6.39h41.18a4.39,4.39,0,0,1,3.92,2.44L621,559a4.38,4.38,0,0,0,7.85,0l65.92-133a4.39,4.39,0,0,1,3.92-2.44h41.18A4.39,4.39,0,0,1,743.74,429.89Z"/><path class="cls-1" d="M932.54,552.18l25.82,41.63a4.38,4.38,0,0,1-3.72,6.69H911.37a4.41,4.41,0,0,1-3.75-2.12l-26-43a4.41,4.41,0,0,0-3.75-2.12H811.38a4.38,4.38,0,0,0-4.37,4.38v38.53a4.39,4.39,0,0,1-4.38,4.38H765.87a4.38,4.38,0,0,1-4.38-4.38V427.88a4.38,4.38,0,0,1,4.38-4.38H900.56c40.2,0,67.76,25.54,67.76,65,0,27-12.87,47.35-34,57.51A4.33,4.33,0,0,0,932.54,552.18ZM807,510.66a4.38,4.38,0,0,0,4.37,4.38h76.54c13.65,0,34.89,0,34.89-26.56,0-26.8-21.24-26.8-34.89-26.8H811.38a4.38,4.38,0,0,0-4.37,4.38Z"/></svg>