<svg id="Layer_1" data-name="Layer 1" xmlns="http://www.w3.org/2000/svg" viewBox="0 0 1334.49 944.85"><defs><style>.cls-1{fill:#010111;}.cls-2{fill:#fff;}.cls-3{fill:none;}</style></defs><title>SAVR_White</title><rect class="cls-1" y="25.01" width="131.03" height="131.03"/><path class="cls-2" d="M-246.89-280.71h-80.64c1.13,1.95,2.47,4.3,3.94,6.82l.28.5c1.29,2.21,2.48,4.3,3.53,6.12h72.89v67.2H-354.42v-26.88h72.88c1.12-1.92,2.42-4.18,3.83-6.61l.18-.32c1.37-2.37,2.65-4.6,3.76-6.51h-80.65v-67.2h107.53Z" transform="translate(366.17 344.36)"/><path class="cls-2" d="M-246.89-273.89v6.62h-72.89v-6.62Z" transform="translate(366.17 344.36)"/><path class="cls-3" d="M-246.89-280.71v6.82h-72.89v6.62c-1.05-1.82-2.24-3.91-3.53-6.12l-.28-.5c-1.47-2.52-2.81-4.87-3.94-6.82Z" transform="translate(366.17 344.36)"/><rect class="cls-2" x="11.75" y="110.79" width="72.85" height="6.62"/><path class="cls-3" d="M-273.77-240.39c-1.11,1.91-2.39,4.14-3.76,6.51l-.18.32c-1.41,2.43-2.71,4.69-3.83,6.61h0v-6.61h-72.85v-6.83Z" transform="translate(366.17 344.36)"/><path class="cls-1" d="M-117.93-255.74l-.12,0h0Z" transform="translate(366.17 344.36)"/><path class="cls-1" d="M-135.54-297.7l23.31,8.24h0a8.75,8.75,0,0,0,3,.53,8.78,8.78,0,0,0,8.78-8.78,8.78,8.78,0,0,0-8.78-8.77,8.75,8.75,0,0,0-3,.53h0Z" transform="translate(366.17 344.36)"/><path class="cls-1" d="M-100.44-210l-23.31,8.23h0a8.75,8.75,0,0,1-3,.53,8.78,8.78,0,0,1-8.78-8.77,8.78,8.78,0,0,1,8.78-8.78,8.75,8.75,0,0,1,3,.53h0Z" transform="translate(366.17 344.36)"/><path class="cls-1" d="M-63.83-253.83a13.54,13.54,0,0,1-13.54,13.54A13.64,13.64,0,0,1-82-241.1l0,0-31.12-11a16.24,16.24,0,0,0-9.47-.08,1,1,0,0,0-.22.08l-31.13,11,0,0a13.55,13.55,0,0,1-4.62.81,13.54,13.54,0,0,1-13.54-13.54,13.54,13.54,0,0,1,13.54-13.54,13.55,13.55,0,0,1,4.62.81l0,0,31.16,11h0a.26.26,0,0,0,.1,0,2.09,2.09,0,0,0,.29.09,16.52,16.52,0,0,0,8.69.08c.2-.06.38-.12.58-.2l31.15-11,0,0a13.64,13.64,0,0,1,4.62-.81A13.54,13.54,0,0,1-63.83-253.83Z" transform="translate(366.17 344.36)"/><path class="cls-1" d="M138.26-303.79v23.12L127-283.48l-33.5-8.34v0l-80.24-20a3.58,3.58,0,0,1-2.84-3.48v-8.87A3.56,3.56,0,0,1,14-327.75H114.3A24,24,0,0,1,138.26-303.79Z" transform="translate(366.17 344.36)"/><path class="cls-1" d="M138.26-250.35v47.75A18.63,18.63,0,0,1,119.62-184H14a3.56,3.56,0,0,1-3.55-3.55v-57A3.57,3.57,0,0,1,14-248a4.63,4.63,0,0,1,1.16.2l2.35.59,6.43,1.6,9.57,2.39,11.76,2.93,13,3.25,13.33,3.32,12.69,3.16,11.13,2.78,8.61,2.15c2.39.59,4.71,1.44,7.11,2s4.74.86,6.89-.34a7.82,7.82,0,0,0,4-6.76,7.69,7.69,0,0,0-.07-1.07,7.74,7.74,0,0,0-5.38-6.33,7.44,7.44,0,0,0-.74-.2l-12.59-3.14L13.3-263.95a2.49,2.49,0,0,1-.37-.09,3.54,3.54,0,0,1-2.49-3.39v-24.82A3.56,3.56,0,0,1,14-295.8a3.45,3.45,0,0,1,.57.05l.48.11s.05,0,.07,0l4.65,1.15L32-291.4l17.3,4.31,19.84,4.95L89-277.2l17.33,4.32,12.29,3.07c5.22,1.3,10.22,2.32,14.17,6.25a18.73,18.73,0,0,1,5.49,12.76Z" transform="translate(366.17 344.36)"/><line class="cls-3" x1="151.17" y1="99" x2="258.97" y2="99"/><line class="cls-3" x1="257.64" y1="75.65" x2="153.04" y2="49.57"/><line class="cls-3" x1="257.64" y1="84.46" x2="153.04" y2="58.38"/><line class="cls-3" x1="168.97" x2="168.97" y2="124.78"/><polyline class="cls-3" points="240.97 124.78 240.97 108 240.97 94.5 240.97 88.5 240.97 80.3 240.97 71.49 240.97 53.4 240.97 44.52 240.97 31.5 240.97 18 240.97 0"/><circle class="cls-3" cx="227.42" cy="72.62" r="4.37"/><circle class="cls-3" cx="170.97" cy="64.9" r="2"/><circle class="cls-3" cx="170.97" cy="97" r="2"/><circle class="cls-3" cx="230.47" cy="88.5" r="10.5"/><circle class="cls-3" cx="230.47" cy="61.6" r="10.5"/><path class="cls-1" d="M242.31-327.75H188.58a21,21,0,0,0-21,21v118.83a4,4,0,0,0,4,4h64.11a4,4,0,0,0,4-4,5.2,5.2,0,0,0-.22-1.3l-.66-2.65L237-199.14l-2.68-10.76L231-223.13l-3.65-14.64-3.74-15L220.09-267,217-279.56l-2.42-9.69c-.67-2.68-1.62-5.3-2.24-8s-1-5.33.39-7.74a8.76,8.76,0,0,1,7.6-4.45,8.06,8.06,0,0,1,1.2.08,8.72,8.72,0,0,1,7.13,6.05,6.5,6.5,0,0,1,.22.84l3.53,14.16L257.6-187.17a3.2,3.2,0,0,0,.1.42,4,4,0,0,0,3.82,2.79h27.92a4,4,0,0,0,4-4,3.31,3.31,0,0,0-.06-.64l-.12-.54a.1.1,0,0,0,0-.08l-1.3-5.23-3.43-13.76-4.85-19.46L278.07-250l-5.57-22.33-4.86-19.5-3.44-13.82c-1.47-5.88-2.61-11.5-7-15.95a21,21,0,0,0-14.35-6.17Z" transform="translate(366.17 344.36)"/><path class="cls-1" d="M571.14-187.95a4,4,0,0,1-4,4H539.22a4,4,0,0,1-3.81-2.79,3.2,3.2,0,0,1-.1-.42l-7.62-30.53,32.75-13.53c.3,1.19.59,2.38.89,3.57l4.86,19.46q1.71,6.88,3.43,13.77.64,2.61,1.3,5.22a.1.1,0,0,1,0,.08l.12.54A3.31,3.31,0,0,1,571.14-187.95Z" transform="translate(366.17 344.36)"/><path class="cls-1" d="M341.27-184H395a21,21,0,0,0,21-21V-323.76a4,4,0,0,0-4-4H347.86a4,4,0,0,0-4,4,5.2,5.2,0,0,0,.22,1.3l.66,2.65,1.8,7.23,2.69,10.77,3.3,13.23,3.65,14.64,3.74,15,3.56,14.28,3.12,12.51,2.41,9.69c.68,2.69,1.63,5.3,2.24,8s1,5.32-.38,7.74a8.8,8.8,0,0,1-7.6,4.45,8.06,8.06,0,0,1-1.2-.08A8.72,8.72,0,0,1,355-208.4a6.5,6.5,0,0,1-.22-.84L351.2-223.4,326-324.54a3.2,3.2,0,0,0-.1-.42,4,4,0,0,0-3.81-2.79H294.14a4,4,0,0,0-4,4,3.31,3.31,0,0,0,.06.64l.12.54a.1.1,0,0,0,0,.08l1.31,5.22,3.43,13.77L300-284l5.56,22.32,5.56,22.33,4.86,19.5,3.45,13.82c1.46,5.87,2.61,11.5,7,16A21.1,21.1,0,0,0,340.76-184Z" transform="translate(366.17 344.36)"/><path class="cls-1" d="M514.21-271.74h0l-4.13-16.56-.76-3.06-2.77-11.1a6.5,6.5,0,0,0-.22-.84,8.72,8.72,0,0,0-7.13-6.05,8.06,8.06,0,0,0-1.2-.08,8.8,8.8,0,0,0-7.6,4.45c-1.36,2.41-1,5.17-.38,7.74s1.57,5.32,2.24,8l1.11,4.46c.43,1.74.87,3.49,1.3,5.23L497.79-267l.47,1.88,3.1,12.4q1.86,7.5,3.73,15c.59,2.35,1.17,4.69,1.76,7l1.89,7.6,3,12,.3,1.2q1.35,5.39,2.69,10.76l1.8,7.24.66,2.65a5.2,5.2,0,0,1,.22,1.3,4,4,0,0,1-4,4H449.31a4,4,0,0,1-4-4V-306.78a21,21,0,0,1,21-21h54.23a21.06,21.06,0,0,1,14.35,6.17c4.42,4.45,5.57,10.07,7,15.95l.18.73,3.27,13.09c.54,2.17,1.08,4.35,1.63,6.52q1.6,6.5,3.23,13,2.67,10.72,5.34,21.46L522.8-237.32Z" transform="translate(366.17 344.36)"/><path class="cls-1" d="M555.55-250.85,522.8-237.32l-15.95,6.59-27.27,11.27-13.4-32.44,32.08-13.26,16-6.59L547-285.29q1.6,6.5,3.23,13Q552.88-261.59,555.55-250.85Z" transform="translate(366.17 344.36)"/><path class="cls-3" d="M-230.66,344.78v65.45a1,1,0,0,1-1,1h-22a1,1,0,0,1-1-1v-63a12,12,0,0,0-12-12h-23.19a1,1,0,0,1-.81-.41V311.65a1,1,0,0,1,.81-.42h26.05l9.14,9.14,14.86,14.86,8.8,8.8.09.09A1,1,0,0,1-230.66,344.78Z" transform="translate(366.17 344.36)"/><path class="cls-3" d="M-289.85,335.23h-.81v-.41A1,1,0,0,0-289.85,335.23Z" transform="translate(366.17 344.36)"/><path class="cls-3" d="M-289.85,311.23a1,1,0,0,0-.81.42v-.42Z" transform="translate(366.17 344.36)"/><path class="cls-3" d="M-230.66,344.37v.41a1,1,0,0,0-.25-.66Z" transform="translate(366.17 344.36)"/><line class="cls-3" x1="135.51" y1="688.73" x2="135.26" y2="688.48"/><circle class="cls-3" cx="99.51" cy="691.59" r="12"/><path class="cls-3" d="M-290.66,311.65v1.17a1,1,0,0,1-.19-.59A1,1,0,0,1-290.66,311.65Z" transform="translate(366.17 344.36)"/><path class="cls-3" d="M-290.66,333.65v1.17a1,1,0,0,1-.19-.59A1,1,0,0,1-290.66,333.65Z" transform="translate(366.17 344.36)"/><path class="cls-2" d="M129.38,423.5H273.15c1.2,0,2.19.74,2.19,1.64V461.2c0,.9-1,1.64-2.19,1.64H134.76c-14.57,0-26.36,8.8-26.36,19.66v38a1.56,1.56,0,0,1-.9,1.32H56.6a1.56,1.56,0,0,1-.92-1.32v-42.7l20.08-15,32.64-24.36,19.33-14.42.2-.15A2.63,2.63,0,0,1,129.38,423.5Z" transform="translate(366.17 344.36)"/><path class="cls-2" d="M201.65,600.5H57.87c-1.2,0-2.19-.74-2.19-1.64V562.8c0-.9,1-1.64,2.19-1.64H196.26c14.57,0,26.36-8.8,26.36-19.66v-38a1.58,1.58,0,0,1,.9-1.32h50.9a1.56,1.56,0,0,1,.92,1.32v42.7l-20.07,15-32.65,24.36-19.33,14.42-.19.15A2.68,2.68,0,0,1,201.65,600.5Z" transform="translate(366.17 344.36)"/><path class="cls-2" d="M454.52,562.82H354a4.39,4.39,0,0,0-3.92,2.41l-16.53,32.86a4.39,4.39,0,0,1-3.91,2.41H289.44a4.38,4.38,0,0,1-3.89-6.39l86.76-168.23a4.37,4.37,0,0,1,3.89-2.38h56.11a4.38,4.38,0,0,1,3.88,2.37l87,168.24a4.38,4.38,0,0,1-3.89,6.39H478.88a4.4,4.4,0,0,1-3.91-2.41l-16.54-32.86A4.36,4.36,0,0,0,454.52,562.82ZM437.11,522.6l-28.83-57.66a4.38,4.38,0,0,0-7.83,0l-29,57.66a4.38,4.38,0,0,0,3.91,6.35h57.86A4.38,4.38,0,0,0,437.11,522.6Z" transform="translate(366.17 344.36)"/><path class="cls-2" d="M743.74,429.89,657.22,598.12a4.4,4.4,0,0,1-3.9,2.38H596.47a4.39,4.39,0,0,1-3.9-2.38L506.05,429.89a4.39,4.39,0,0,1,3.9-6.39h41.18a4.39,4.39,0,0,1,3.92,2.44L621,559a4.38,4.38,0,0,0,7.85,0l65.92-133a4.39,4.39,0,0,1,3.92-2.44h41.18A4.39,4.39,0,0,1,743.74,429.89Z" transform="translate(366.17 344.36)"/><path class="cls-2" d="M932.54,552.18l25.82,41.63a4.38,4.38,0,0,1-3.72,6.69H911.37a4.41,4.41,0,0,1-3.75-2.12l-26-43a4.41,4.41,0,0,0-3.75-2.12H811.38a4.38,4.38,0,0,0-4.37,4.38v38.53a4.39,4.39,0,0,1-4.38,4.38H765.87a4.38,4.38,0,0,1-4.38-4.38V427.88a4.38,4.38,0,0,1,4.38-4.38H900.56c40.2,0,67.76,25.54,67.76,65,0,27-12.87,47.35-34,57.51A4.33,4.33,0,0,0,932.54,552.18ZM807,510.66a4.38,4.38,0,0,0,4.37,4.38h76.54c13.65,0,34.89,0,34.89-26.56,0-26.8-21.24-26.8-34.89-26.8H811.38a4.38,4.38,0,0,0-4.37,4.38Z" transform="translate(366.17 344.36)"/></svg>