<svg width="16" height="16" viewBox="0 0 16 16" fill="none" xmlns="http://www.w3.org/2000/svg">
<g clip-path="url(#clip0_1_3558)">
<path d="M9.39696 7.96333C9.39696 6.86822 8.21115 6.18006 7.26762 6.72761C6.32409 7.27517 6.32409 8.65149 7.26762 9.19905C8.21115 9.7466 9.39696 9.05844 9.39696 7.96333ZM12.6473 5.33301C13.5867 0.842691 11.52 -0.566406 8.00665 2.68391C4.69997 -0.416103 2.34521 0.560872 3.34723 5.31423C-1.27343 6.7072 -0.96729 9.3294 3.38481 10.6688C2.38905 15.0464 4.24906 16.6434 8.00665 13.3367C11.6515 16.6058 13.5859 15.0752 12.5909 10.65C17.338 9.04051 16.9121 6.7108 12.6473 5.33301ZM12.0085 5.16392C11.2638 4.99594 10.5432 4.87366 9.81029 4.80695C9.42416 4.24234 8.97441 3.67835 8.45756 3.15361C11.2744 0.451724 12.9345 1.29596 12.0085 5.16392ZM4.73754 8.82758C5.01623 9.42253 5.3826 9.96738 5.65815 10.4246C5.20945 10.3787 4.72605 10.309 4.21148 10.2179C4.37636 9.75635 4.5519 9.29288 4.73754 8.82758ZM4.69997 7.21181C4.49498 6.71976 4.30793 6.24486 4.15512 5.80271C4.68632 5.6926 5.20687 5.59263 5.65815 5.55847C5.32228 6.0861 5.00326 6.63774 4.69997 7.21181ZM5.09451 8.03848C5.55395 7.11837 6.03995 6.24499 6.57876 5.46453C7.53483 5.40955 8.48072 5.41442 9.41575 5.48332C9.94016 6.21403 10.4296 7.08738 10.9 8.03848C10.548 8.76589 10.0482 9.60421 9.47211 10.4997C8.51033 10.5725 7.52412 10.5625 6.5224 10.4997C6.01469 9.72189 5.53788 8.90263 5.09451 8.03848ZM11.257 8.82758C11.4394 9.27028 11.608 9.72149 11.7642 10.1803C11.282 10.2818 10.8063 10.3558 10.3364 10.4058C10.6581 9.90734 10.9632 9.37812 11.257 8.82758ZM10.3364 5.55847C10.8486 5.6286 11.3435 5.71617 11.8206 5.8215C11.661 6.29582 11.4796 6.75938 11.2758 7.21181C10.9849 6.63824 10.6727 6.08622 10.3364 5.55847ZM8.88968 4.7318C8.30454 4.70884 7.70927 4.70958 7.10483 4.7318C7.36944 4.38378 7.66438 4.02024 7.98786 3.6421C8.30311 3.98238 8.60178 4.34864 8.88968 4.7318ZM7.53695 3.15361C7.0201 3.67835 6.57035 4.22355 6.18422 4.78816C5.45133 4.85488 4.71195 4.97715 3.96724 5.14514C3.0842 1.21845 4.72014 0.451724 7.53695 3.15361ZM3.5539 10.0488C-0.360259 8.87141 -0.172379 7.03646 3.51633 5.95302C3.74197 6.63774 4.01514 7.33313 4.32421 8.00091C4.02388 8.69151 3.75801 9.40082 3.5539 10.0488ZM4.04239 10.8379C4.70623 11.0007 5.40972 11.0789 6.14664 11.1573C6.59004 11.783 7.04922 12.3648 7.53695 12.867C4.66865 15.6163 3.06967 14.6174 4.04239 10.8379ZM7.98786 12.3973C7.64797 12.0453 7.33063 11.6465 7.02968 11.2136C7.70052 11.2278 8.34843 11.2294 8.96484 11.2136C8.66631 11.6372 8.34028 12.0313 7.98786 12.3973ZM8.45756 12.867C8.98089 12.2984 9.44224 11.722 9.84787 11.1385C10.5402 11.0876 11.2416 10.9812 11.9521 10.8191C12.9336 14.842 11.1515 15.4361 8.45756 12.867ZM12.4218 10.0112C12.2206 9.36325 11.9664 8.69151 11.6703 8.00091C11.975 7.33313 12.2369 6.65652 12.4594 5.97181C16.0604 7.06151 16.3485 8.80253 12.4218 10.0112Z" fill="#C0C0C0"/>
</g>
<defs>
<clipPath id="clip0_1_3558">
<rect width="16" height="16" fill="white"/>
</clipPath>
</defs>
</svg>
