<svg width="16" height="16" viewBox="0 0 16 16" fill="none" xmlns="http://www.w3.org/2000/svg">
<g clip-path="url(#clip0_1_2709)">
<path d="M0 0.155915L13.7024 14.67C13.7024 14.67 14.1692 14.9993 14.5262 14.6152C14.8831 14.231 14.6085 13.8469 14.6085 13.8469L0 0.155884V0.155915Z" fill="#C0C0C0"/>
<path d="M4.33865 1.52774L14.7733 12.7769C14.7733 12.7769 15.2401 13.1061 15.5971 12.722C15.9541 12.3379 15.6795 11.9537 15.6795 11.9537L4.33862 1.52771L4.33865 1.52774Z" fill="#C0C0C0"/>
<path d="M1.29065 4.46353L11.7253 15.7127C11.7253 15.7127 12.1921 16.0419 12.5491 15.6578C12.9061 15.2737 12.6315 14.8895 12.6315 14.8895L1.29065 4.4635V4.46353Z" fill="#C0C0C0"/>
<path d="M8.00635 2.70752L15.2964 10.5666C15.2964 10.5666 15.6226 10.7966 15.8719 10.5283C16.1213 10.2599 15.9295 9.99155 15.9295 9.99155L8.00629 2.70752H8.00635Z" fill="#C0C0C0"/>
<path d="M2.29477 7.86572L9.58486 15.7248C9.58486 15.7248 9.91102 15.9548 10.1604 15.6865C10.4098 15.4181 10.2179 15.1498 10.2179 15.1498L2.29477 7.86572Z" fill="#C0C0C0"/>
<path d="M11.7527 4.40869L15.0568 7.98153C15.0568 7.98153 15.2182 8.08932 15.3416 7.96357C15.4649 7.83782 15.37 7.71207 15.37 7.71207L11.7527 4.40869Z" fill="#C0C0C0"/>
<path d="M4.11896 11.4873L7.42308 15.0601C7.42308 15.0601 7.5844 15.1679 7.7078 15.0422C7.83121 14.9164 7.73627 14.7907 7.73627 14.7907L4.11899 11.4873H4.11896Z" fill="#C0C0C0"/>
</g>
<defs>
<clipPath id="clip0_1_2709">
<rect width="16" height="16" fill="white"/>
</clipPath>
</defs>
</svg>
