<svg width="16" height="16" viewBox="0 0 16 16" fill="none" xmlns="http://www.w3.org/2000/svg">
<g clip-path="url(#clip0_1_1298)">
<path d="M7.7151 8.23286C7.81614 4.19295 10.4205 2.42731 11.323 3.30927C12.2255 4.19295 11.8916 6.09388 10.1876 7.28239C8.4836 8.47005 7.7151 8.23286 7.7151 8.23286ZM15.8322 13.6685L16 9.76217C11.2738 13.1735 7.9728 12.8234 8.11541 10.8556C8.11541 10.8556 16.5669 7.91518 14.2635 2.10963C13.2274 0.616282 12.0252 0.147043 10.3212 0.181293C7.36939 0.219428 4.67445 3.31439 4.10804 8.369C4.10804 8.369 2.62839 8.67555 1.82692 7.99652C1.02545 7.3175 0.612721 7.99652 0.612721 7.99652C0.612721 7.99652 -0.762465 9.77844 0.607576 10.3213C1.97591 10.8642 4.11317 11.1177 4.11317 11.1177C5.35135 15.6268 8.70509 17.6961 15.8322 13.6685Z" fill="#C0C0C0"/>
</g>
<defs>
<clipPath id="clip0_1_1298">
<rect width="16" height="16" fill="white"/>
</clipPath>
</defs>
</svg>
