<svg width="16" height="16" viewBox="0 0 16 16" fill="none" xmlns="http://www.w3.org/2000/svg">
<path d="M9.38347 1.29754C8.68816 1.31097 7.99632 1.50407 7.38501 1.89349L4.26197 3.88368C3.84047 4.14843 3.4788 4.49815 3.20005 4.91052C2.9213 5.32289 2.7316 5.78886 2.64304 6.27866C2.49367 7.10537 2.62428 7.95827 3.01419 8.7024C2.74697 9.10781 2.56489 9.56328 2.47899 10.0412C2.38979 10.5418 2.40157 11.0552 2.51363 11.5512C2.6257 12.0472 2.8358 12.5158 3.13157 12.9295C4.37696 14.7114 6.83653 15.2394 8.61477 14.1066L11.7379 12.1248C12.1589 11.8595 12.5202 11.5096 12.7989 11.0973C13.0776 10.6851 13.2676 10.2194 13.3569 9.72981C13.5057 8.90337 13.3746 8.0509 12.9845 7.3073C13.2516 6.9017 13.434 6.44635 13.5209 5.96853C13.6099 5.46789 13.598 4.95454 13.4859 4.45857C13.3738 3.96259 13.1639 3.49398 12.8684 3.08021V3.07063C12.0511 1.90129 10.7109 1.27189 9.38347 1.29754ZM9.65742 2.82714C10.0386 2.84464 10.4105 2.94984 10.7444 3.13456C11.0782 3.31928 11.3649 3.57854 11.5822 3.89216C11.7602 4.14075 11.8866 4.42245 11.9541 4.72065C12.0216 5.01885 12.0287 5.32754 11.975 5.62853C11.9563 5.72696 11.9315 5.82413 11.9008 5.91947L11.8409 6.09915L11.6816 5.97936C11.312 5.70804 10.899 5.50152 10.4602 5.36864L10.3405 5.33396L10.3512 5.21416C10.365 5.04918 10.3201 4.88463 10.2243 4.74958C10.1364 4.62618 10.013 4.53247 9.87059 4.48091C9.72813 4.42935 9.57335 4.42238 9.42684 4.46094C9.35903 4.47891 9.29439 4.50719 9.23517 4.54479L6.11101 6.53146C6.03469 6.57968 5.96921 6.64321 5.9187 6.71803C5.86819 6.79285 5.83376 6.87734 5.81757 6.96615C5.80192 7.05715 5.80445 7.15035 5.82501 7.24037C5.84557 7.33039 5.88375 7.41544 5.93736 7.49063C6.02431 7.61503 6.14704 7.71006 6.28925 7.7631C6.43146 7.81614 6.58644 7.82469 6.73363 7.78761C6.80126 7.76916 6.86583 7.74091 6.92529 7.70375L8.12278 6.94461C8.31845 6.81906 8.53256 6.7249 8.75734 6.66554C9.24872 6.53756 9.76754 6.56357 10.2436 6.74006C10.7198 6.91654 11.1302 7.23498 11.4194 7.65232C11.5973 7.90098 11.7236 8.18268 11.791 8.48086C11.8585 8.77905 11.8657 9.0877 11.8121 9.38869C11.7593 9.68389 11.6454 9.96481 11.4777 10.2135C11.3101 10.4622 11.0924 10.6731 10.8386 10.8329L7.71432 12.823C7.51813 12.9476 7.30417 13.0416 7.07976 13.102C6.58809 13.2296 6.06911 13.2033 5.59287 13.0266C5.11662 12.85 4.70603 12.5315 4.4165 12.1141C4.23874 11.8654 4.11253 11.5837 4.04528 11.2855C3.97804 10.9873 3.97112 10.6786 4.02494 10.3777C4.04258 10.2799 4.06737 10.1834 4.09911 10.0892L4.15786 9.9095L4.31828 10.0293C4.68713 10.2986 5.09893 10.5034 5.5362 10.6352L5.65589 10.6699L5.64516 10.7897C5.63363 10.9539 5.6798 11.1169 5.77568 11.2507C5.86304 11.3763 5.98677 11.4721 6.13021 11.5252C6.27365 11.5783 6.42992 11.5861 6.57797 11.5477C6.64566 11.5295 6.71024 11.5012 6.76954 11.4639L9.88777 9.47367C9.96438 9.42548 10.0301 9.36181 10.0806 9.28673C10.1311 9.21166 10.1654 9.12684 10.1812 9.03774C10.1972 8.94694 10.1948 8.85387 10.1742 8.76401C10.1536 8.67415 10.1153 8.58932 10.0614 8.5145C9.97406 8.38895 9.85033 8.29318 9.70689 8.24008C9.56345 8.18699 9.40718 8.17911 9.25913 8.21752C9.19137 8.23547 9.12676 8.26372 9.06757 8.30127L7.87007 9.0617C7.67423 9.18588 7.46064 9.27955 7.23663 9.33951C6.74578 9.46635 6.22786 9.43977 5.75257 9.26337C5.27728 9.08697 4.86743 8.76921 4.57818 8.35285C4.40095 8.10392 4.27524 7.8221 4.20841 7.52392C4.14158 7.22575 4.13499 6.91723 4.18901 6.61647C4.24189 6.32127 4.35579 6.04036 4.52343 5.79168C4.69106 5.54301 4.90875 5.33206 5.16256 5.17231L8.29035 3.18213C8.48506 3.05819 8.69745 2.96452 8.92027 2.90431C9.16074 2.84184 9.40924 2.81585 9.65744 2.82723L9.65742 2.82714Z" fill="#C0C0C0"/>
</svg>
