<svg width="16" height="16" viewBox="0 0 16 16" fill="none" xmlns="http://www.w3.org/2000/svg">
<g clip-path="url(#clip0_1_2977)">
<path d="M8.005 16.01C7.79227 16.0096 7.58348 15.9526 7.4 15.845L5.468 14.685C5.18 14.522 5.321 14.463 5.416 14.43C5.72279 14.3342 6.01615 14.1998 6.289 14.03C6.31207 14.0192 6.33754 14.0145 6.36294 14.0165C6.38835 14.0184 6.41282 14.0268 6.434 14.041L7.917 14.935C7.94461 14.95 7.97555 14.9579 8.007 14.9579C8.03845 14.9579 8.06939 14.95 8.097 14.935L13.881 11.547C13.908 11.5302 13.9303 11.5068 13.9457 11.479C13.9611 11.4511 13.9692 11.4198 13.969 11.388V4.60799C13.9691 4.57566 13.961 4.54384 13.9454 4.51551C13.9298 4.48717 13.9073 4.46325 13.88 4.44599L8.1 1.06099C8.07291 1.04546 8.04222 1.0373 8.011 1.0373C7.97977 1.0373 7.94909 1.04546 7.922 1.06099L2.138 4.44799C2.11024 4.46471 2.08728 4.48832 2.07133 4.51653C2.05539 4.54473 2.04701 4.57659 2.047 4.60899V11.386C2.0469 11.4179 2.05528 11.4492 2.07127 11.4768C2.08726 11.5044 2.11029 11.5272 2.138 11.543L3.723 12.472C4.583 12.908 5.109 12.394 5.109 11.878V5.18699C5.10887 5.16484 5.11312 5.14289 5.1215 5.12239C5.12988 5.10189 5.14224 5.08325 5.15785 5.06755C5.17346 5.05184 5.19203 5.03938 5.21248 5.03087C5.23292 5.02237 5.25485 5.01799 5.277 5.01799H6.01C6.03206 5.01812 6.05388 5.02259 6.07421 5.03116C6.09455 5.03972 6.11299 5.05221 6.1285 5.0679C6.14401 5.08359 6.15627 5.10219 6.16459 5.12262C6.17292 5.14305 6.17713 5.16493 6.177 5.18699V11.877C6.20964 12.115 6.18886 12.3572 6.11616 12.5861C6.04347 12.8151 5.92068 13.0249 5.75673 13.2005C5.59278 13.376 5.39178 13.5128 5.16834 13.6009C4.9449 13.6891 4.70464 13.7263 4.465 13.71C3.99451 13.7182 3.53166 13.5904 3.132 13.342L1.615 12.456C1.42961 12.3455 1.27616 12.1886 1.16973 12.0008C1.06331 11.8131 1.00757 11.6008 1.008 11.385V4.60799C1.00745 4.39226 1.06314 4.18012 1.16959 3.99248C1.27603 3.80485 1.42955 3.6482 1.615 3.53799L7.4 0.145989C7.58593 0.0424843 7.7952 -0.0118408 8.008 -0.0118408C8.2208 -0.0118408 8.43007 0.0424843 8.616 0.145989L14.4 3.53799C14.5855 3.64822 14.7391 3.80485 14.8457 3.99246C14.9523 4.18007 15.0082 4.39221 15.008 4.60799V11.384C15.008 11.5999 14.952 11.812 14.8454 11.9998C14.7389 12.1875 14.5854 12.3444 14.4 12.455L8.616 15.845C8.43135 15.9533 8.22108 16.0103 8.007 16.01H8.005ZM9.792 11.341C7.26 11.341 6.73 10.161 6.73 9.17199C6.72932 9.14939 6.73324 9.12688 6.74151 9.10584C6.74979 9.08479 6.76225 9.06565 6.77815 9.04957C6.79404 9.03348 6.81304 9.0208 6.83399 9.01227C6.85493 9.00375 6.87739 8.99957 6.9 8.99999H7.645C7.68535 9.00006 7.72433 9.01464 7.75481 9.04108C7.78529 9.06752 7.80524 9.10405 7.811 9.14399C7.924 9.91699 8.26 10.307 9.791 10.307C11.009 10.307 11.528 10.027 11.528 9.37099C11.528 8.99199 11.382 8.71199 9.487 8.52299C7.905 8.36399 6.925 8.00899 6.925 6.72299C6.925 5.53799 7.909 4.83199 9.558 4.83199C11.411 4.83199 12.328 5.48499 12.444 6.88599C12.4459 6.90951 12.443 6.93318 12.4354 6.95554C12.4279 6.9779 12.4158 6.99847 12.4 7.01599C12.3844 7.0332 12.3655 7.04697 12.3443 7.05644C12.3231 7.06591 12.3002 7.07087 12.277 7.07099H11.527C11.4889 7.07065 11.452 7.05726 11.4225 7.03307C11.3931 7.00887 11.3728 6.97532 11.365 6.93799C11.185 6.12499 10.746 5.86499 9.559 5.86499C8.228 5.86499 8.074 6.33499 8.074 6.68799C8.074 7.11599 8.257 7.23999 10.053 7.48099C11.831 7.71899 12.676 8.05699 12.676 9.32499C12.676 10.593 11.626 11.337 9.793 11.337L9.792 11.341Z" fill="#C0C0C0"/>
</g>
<defs>
<clipPath id="clip0_1_2977">
<rect width="16" height="16" fill="white"/>
</clipPath>
</defs>
</svg>
